ISO-10303-21;
HEADER;
/* Generated by software containing ST-Developer
 * from STEP Tools, Inc. (www.steptools.com) 
 */
/* OPTION: using custom renumber hook */

FILE_DESCRIPTION(
/* description */ ('STEP AP242 Edition 2',
'CAx-IF Rec.Pracs.---Representation and Presentation of Product Manufa
cturing Information (PMI)---4.0---2014-10-13',
'CAx-IF Rec.Pracs.---3D Tessellated Geometry---0.4---2014-09-14','2;1',
'CAx-IF Rec.Pracs.---User Defined Attributes---1.5---2016-08-15'),
/* implementation_level */ '2;1');

FILE_NAME(
/* name */ 'Pusher',
/* time_stamp */ '2026-04-30T14:53:42Z',
/* author */ (''),
/* organization */ (''),
/* preprocessor_version */ 'ST-DEVELOPER v20',
/* originating_system */ 'ONSHAPE BY PTC INC, 1.214',
/* authorisation */ '  ');

FILE_SCHEMA (('AP242_MANAGED_MODEL_BASED_3D_ENGINEERING_MIM_LF { 1 0 10303 442 3 1 4 }'));
ENDSEC;

DATA;
#10=SHAPE_REPRESENTATION_RELATIONSHIP('','',#363,#11);
#11=ADVANCED_BREP_SHAPE_REPRESENTATION('',(#361),#577);
#12=CYLINDRICAL_SURFACE('',#382,0.003625);
#13=CYLINDRICAL_SURFACE('',#383,0.003625);
#14=CIRCLE('',#371,0.003625);
#15=CIRCLE('',#373,0.003625);
#16=CIRCLE('',#379,0.003625);
#17=CIRCLE('',#381,0.003625);
#18=ORIENTED_EDGE('',*,*,#114,.F.);
#19=ORIENTED_EDGE('',*,*,#115,.T.);
#20=ORIENTED_EDGE('',*,*,#116,.T.);
#21=ORIENTED_EDGE('',*,*,#117,.T.);
#22=ORIENTED_EDGE('',*,*,#118,.F.);
#23=ORIENTED_EDGE('',*,*,#119,.F.);
#24=ORIENTED_EDGE('',*,*,#120,.F.);
#25=ORIENTED_EDGE('',*,*,#121,.F.);
#26=ORIENTED_EDGE('',*,*,#122,.F.);
#27=ORIENTED_EDGE('',*,*,#123,.T.);
#28=ORIENTED_EDGE('',*,*,#124,.F.);
#29=ORIENTED_EDGE('',*,*,#125,.T.);
#30=ORIENTED_EDGE('',*,*,#126,.F.);
#31=ORIENTED_EDGE('',*,*,#127,.T.);
#32=ORIENTED_EDGE('',*,*,#128,.F.);
#33=ORIENTED_EDGE('',*,*,#129,.T.);
#34=ORIENTED_EDGE('',*,*,#130,.F.);
#35=ORIENTED_EDGE('',*,*,#131,.T.);
#36=ORIENTED_EDGE('',*,*,#132,.T.);
#37=ORIENTED_EDGE('',*,*,#120,.T.);
#38=ORIENTED_EDGE('',*,*,#133,.F.);
#39=ORIENTED_EDGE('',*,*,#116,.F.);
#40=ORIENTED_EDGE('',*,*,#134,.F.);
#41=ORIENTED_EDGE('',*,*,#135,.F.);
#42=ORIENTED_EDGE('',*,*,#136,.T.);
#43=ORIENTED_EDGE('',*,*,#137,.F.);
#44=ORIENTED_EDGE('',*,*,#138,.T.);
#45=ORIENTED_EDGE('',*,*,#124,.T.);
#46=ORIENTED_EDGE('',*,*,#139,.F.);
#47=ORIENTED_EDGE('',*,*,#125,.F.);
#48=ORIENTED_EDGE('',*,*,#138,.F.);
#49=ORIENTED_EDGE('',*,*,#140,.T.);
#50=ORIENTED_EDGE('',*,*,#141,.T.);
#51=ORIENTED_EDGE('',*,*,#142,.F.);
#52=ORIENTED_EDGE('',*,*,#119,.T.);
#53=ORIENTED_EDGE('',*,*,#143,.T.);
#54=ORIENTED_EDGE('',*,*,#126,.T.);
#55=ORIENTED_EDGE('',*,*,#144,.F.);
#56=ORIENTED_EDGE('',*,*,#117,.F.);
#57=ORIENTED_EDGE('',*,*,#133,.T.);
#58=ORIENTED_EDGE('',*,*,#145,.F.);
#59=ORIENTED_EDGE('',*,*,#146,.F.);
#60=ORIENTED_EDGE('',*,*,#141,.F.);
#61=ORIENTED_EDGE('',*,*,#147,.T.);
#62=ORIENTED_EDGE('',*,*,#148,.F.);
#63=ORIENTED_EDGE('',*,*,#149,.T.);
#64=ORIENTED_EDGE('',*,*,#150,.T.);
#65=ORIENTED_EDGE('',*,*,#114,.T.);
#66=ORIENTED_EDGE('',*,*,#144,.T.);
#67=ORIENTED_EDGE('',*,*,#129,.F.);
#68=ORIENTED_EDGE('',*,*,#151,.T.);
#69=ORIENTED_EDGE('',*,*,#152,.T.);
#70=ORIENTED_EDGE('',*,*,#153,.F.);
#71=ORIENTED_EDGE('',*,*,#147,.F.);
#72=ORIENTED_EDGE('',*,*,#140,.F.);
#73=ORIENTED_EDGE('',*,*,#137,.T.);
#74=ORIENTED_EDGE('',*,*,#154,.T.);
#75=ORIENTED_EDGE('',*,*,#155,.T.);
#76=ORIENTED_EDGE('',*,*,#142,.T.);
#77=ORIENTED_EDGE('',*,*,#146,.T.);
#78=ORIENTED_EDGE('',*,*,#156,.T.);
#79=ORIENTED_EDGE('',*,*,#131,.F.);
#80=ORIENTED_EDGE('',*,*,#157,.F.);
#81=ORIENTED_EDGE('',*,*,#152,.F.);
#82=ORIENTED_EDGE('',*,*,#123,.F.);
#83=ORIENTED_EDGE('',*,*,#158,.T.);
#84=ORIENTED_EDGE('',*,*,#154,.F.);
#85=ORIENTED_EDGE('',*,*,#145,.T.);
#86=ORIENTED_EDGE('',*,*,#157,.T.);
#87=ORIENTED_EDGE('',*,*,#130,.T.);
#88=ORIENTED_EDGE('',*,*,#159,.F.);
#89=ORIENTED_EDGE('',*,*,#121,.T.);
#90=ORIENTED_EDGE('',*,*,#132,.F.);
#91=ORIENTED_EDGE('',*,*,#156,.F.);
#92=ORIENTED_EDGE('',*,*,#151,.F.);
#93=ORIENTED_EDGE('',*,*,#128,.T.);
#94=ORIENTED_EDGE('',*,*,#118,.T.);
#95=ORIENTED_EDGE('',*,*,#159,.T.);
#96=ORIENTED_EDGE('',*,*,#127,.F.);
#97=ORIENTED_EDGE('',*,*,#143,.F.);
#98=ORIENTED_EDGE('',*,*,#122,.T.);
#99=ORIENTED_EDGE('',*,*,#139,.T.);
#100=ORIENTED_EDGE('',*,*,#155,.F.);
#101=ORIENTED_EDGE('',*,*,#158,.F.);
#102=ORIENTED_EDGE('',*,*,#153,.T.);
#103=ORIENTED_EDGE('',*,*,#136,.F.);
#104=ORIENTED_EDGE('',*,*,#160,.F.);
#105=ORIENTED_EDGE('',*,*,#148,.T.);
#106=ORIENTED_EDGE('',*,*,#115,.F.);
#107=ORIENTED_EDGE('',*,*,#150,.F.);
#108=ORIENTED_EDGE('',*,*,#161,.T.);
#109=ORIENTED_EDGE('',*,*,#134,.T.);
#110=ORIENTED_EDGE('',*,*,#149,.F.);
#111=ORIENTED_EDGE('',*,*,#160,.T.);
#112=ORIENTED_EDGE('',*,*,#135,.T.);
#113=ORIENTED_EDGE('',*,*,#161,.F.);
#114=EDGE_CURVE('',#162,#163,#194,.T.);
#115=EDGE_CURVE('',#162,#164,#195,.T.);
#116=EDGE_CURVE('',#164,#165,#196,.T.);
#117=EDGE_CURVE('',#165,#163,#197,.T.);
#118=EDGE_CURVE('',#166,#167,#198,.T.);
#119=EDGE_CURVE('',#168,#166,#199,.T.);
#120=EDGE_CURVE('',#169,#168,#200,.T.);
#121=EDGE_CURVE('',#167,#169,#201,.T.);
#122=EDGE_CURVE('',#170,#171,#202,.T.);
#123=EDGE_CURVE('',#170,#172,#203,.T.);
#124=EDGE_CURVE('',#173,#172,#204,.T.);
#125=EDGE_CURVE('',#173,#171,#205,.T.);
#126=EDGE_CURVE('',#174,#175,#206,.T.);
#127=EDGE_CURVE('',#174,#176,#207,.T.);
#128=EDGE_CURVE('',#177,#176,#208,.T.);
#129=EDGE_CURVE('',#177,#175,#209,.T.);
#130=EDGE_CURVE('',#178,#172,#210,.T.);
#131=EDGE_CURVE('',#178,#179,#211,.T.);
#132=EDGE_CURVE('',#179,#169,#212,.T.);
#133=EDGE_CURVE('',#165,#168,#213,.T.);
#134=EDGE_CURVE('',#180,#164,#214,.T.);
#135=EDGE_CURVE('',#181,#180,#215,.T.);
#136=EDGE_CURVE('',#181,#182,#216,.T.);
#137=EDGE_CURVE('',#183,#182,#217,.T.);
#138=EDGE_CURVE('',#183,#173,#218,.T.);
#139=EDGE_CURVE('',#171,#184,#14,.T.);
#140=EDGE_CURVE('',#183,#185,#219,.T.);
#141=EDGE_CURVE('',#185,#186,#220,.T.);
#142=EDGE_CURVE('',#184,#186,#221,.T.);
#143=EDGE_CURVE('',#166,#174,#15,.T.);
#144=EDGE_CURVE('',#163,#175,#222,.T.);
#145=EDGE_CURVE('',#187,#188,#223,.T.);
#146=EDGE_CURVE('',#186,#187,#224,.T.);
#147=EDGE_CURVE('',#185,#189,#225,.T.);
#148=EDGE_CURVE('',#190,#189,#226,.T.);
#149=EDGE_CURVE('',#190,#191,#227,.T.);
#150=EDGE_CURVE('',#191,#162,#228,.T.);
#151=EDGE_CURVE('',#177,#192,#229,.T.);
#152=EDGE_CURVE('',#192,#188,#230,.T.);
#153=EDGE_CURVE('',#189,#182,#231,.T.);
#154=EDGE_CURVE('',#187,#193,#232,.T.);
#155=EDGE_CURVE('',#193,#184,#233,.T.);
#156=EDGE_CURVE('',#192,#179,#234,.T.);
#157=EDGE_CURVE('',#188,#178,#235,.T.);
#158=EDGE_CURVE('',#170,#193,#16,.T.);
#159=EDGE_CURVE('',#167,#176,#17,.T.);
#160=EDGE_CURVE('',#190,#181,#236,.T.);
#161=EDGE_CURVE('',#191,#180,#237,.T.);
#162=VERTEX_POINT('',#480);
#163=VERTEX_POINT('',#481);
#164=VERTEX_POINT('',#483);
#165=VERTEX_POINT('',#485);
#166=VERTEX_POINT('',#489);
#167=VERTEX_POINT('',#490);
#168=VERTEX_POINT('',#492);
#169=VERTEX_POINT('',#494);
#170=VERTEX_POINT('',#498);
#171=VERTEX_POINT('',#499);
#172=VERTEX_POINT('',#501);
#173=VERTEX_POINT('',#503);
#174=VERTEX_POINT('',#507);
#175=VERTEX_POINT('',#508);
#176=VERTEX_POINT('',#510);
#177=VERTEX_POINT('',#512);
#178=VERTEX_POINT('',#516);
#179=VERTEX_POINT('',#518);
#180=VERTEX_POINT('',#522);
#181=VERTEX_POINT('',#524);
#182=VERTEX_POINT('',#526);
#183=VERTEX_POINT('',#528);
#184=VERTEX_POINT('',#532);
#185=VERTEX_POINT('',#534);
#186=VERTEX_POINT('',#536);
#187=VERTEX_POINT('',#543);
#188=VERTEX_POINT('',#544);
#189=VERTEX_POINT('',#547);
#190=VERTEX_POINT('',#549);
#191=VERTEX_POINT('',#551);
#192=VERTEX_POINT('',#554);
#193=VERTEX_POINT('',#560);
#194=LINE('',#479,#238);
#195=LINE('',#482,#239);
#196=LINE('',#484,#240);
#197=LINE('',#486,#241);
#198=LINE('',#488,#242);
#199=LINE('',#491,#243);
#200=LINE('',#493,#244);
#201=LINE('',#495,#245);
#202=LINE('',#497,#246);
#203=LINE('',#500,#247);
#204=LINE('',#502,#248);
#205=LINE('',#504,#249);
#206=LINE('',#506,#250);
#207=LINE('',#509,#251);
#208=LINE('',#511,#252);
#209=LINE('',#513,#253);
#210=LINE('',#515,#254);
#211=LINE('',#517,#255);
#212=LINE('',#519,#256);
#213=LINE('',#520,#257);
#214=LINE('',#521,#258);
#215=LINE('',#523,#259);
#216=LINE('',#525,#260);
#217=LINE('',#527,#261);
#218=LINE('',#529,#262);
#219=LINE('',#533,#263);
#220=LINE('',#535,#264);
#221=LINE('',#537,#265);
#222=LINE('',#540,#266);
#223=LINE('',#542,#267);
#224=LINE('',#545,#268);
#225=LINE('',#546,#269);
#226=LINE('',#548,#270);
#227=LINE('',#550,#271);
#228=LINE('',#552,#272);
#229=LINE('',#553,#273);
#230=LINE('',#555,#274);
#231=LINE('',#557,#275);
#232=LINE('',#559,#276);
#233=LINE('',#561,#277);
#234=LINE('',#563,#278);
#235=LINE('',#564,#279);
#236=LINE('',#572,#280);
#237=LINE('',#574,#281);
#238=VECTOR('',#391,1.);
#239=VECTOR('',#392,1.);
#240=VECTOR('',#393,1.);
#241=VECTOR('',#394,1.);
#242=VECTOR('',#397,1.);
#243=VECTOR('',#398,1.);
#244=VECTOR('',#399,1.);
#245=VECTOR('',#400,1.);
#246=VECTOR('',#403,1.);
#247=VECTOR('',#404,1.);
#248=VECTOR('',#405,1.);
#249=VECTOR('',#406,1.);
#250=VECTOR('',#409,1.);
#251=VECTOR('',#410,1.);
#252=VECTOR('',#411,1.);
#253=VECTOR('',#412,1.);
#254=VECTOR('',#415,1.);
#255=VECTOR('',#416,1.);
#256=VECTOR('',#417,1.);
#257=VECTOR('',#418,1.);
#258=VECTOR('',#419,1.);
#259=VECTOR('',#420,1.);
#260=VECTOR('',#421,1.);
#261=VECTOR('',#422,1.);
#262=VECTOR('',#423,1.);
#263=VECTOR('',#428,1.);
#264=VECTOR('',#429,1.);
#265=VECTOR('',#430,1.);
#266=VECTOR('',#435,1.);
#267=VECTOR('',#438,1.);
#268=VECTOR('',#439,1.);
#269=VECTOR('',#440,1.);
#270=VECTOR('',#441,1.);
#271=VECTOR('',#442,1.);
#272=VECTOR('',#443,1.);
#273=VECTOR('',#444,1.);
#274=VECTOR('',#445,1.);
#275=VECTOR('',#448,1.);
#276=VECTOR('',#451,1.);
#277=VECTOR('',#452,1.);
#278=VECTOR('',#455,1.);
#279=VECTOR('',#456,1.);
#280=VECTOR('',#471,1.);
#281=VECTOR('',#474,1.);
#282=EDGE_LOOP('',(#18,#19,#20,#21));
#283=EDGE_LOOP('',(#22,#23,#24,#25));
#284=EDGE_LOOP('',(#26,#27,#28,#29));
#285=EDGE_LOOP('',(#30,#31,#32,#33));
#286=EDGE_LOOP('',(#34,#35,#36,#37,#38,#39,#40,#41,#42,#43,#44,#45));
#287=EDGE_LOOP('',(#46,#47,#48,#49,#50,#51));
#288=EDGE_LOOP('',(#52,#53,#54,#55,#56,#57));
#289=EDGE_LOOP('',(#58,#59,#60,#61,#62,#63,#64,#65,#66,#67,#68,#69));
#290=EDGE_LOOP('',(#70,#71,#72,#73));
#291=EDGE_LOOP('',(#74,#75,#76,#77));
#292=EDGE_LOOP('',(#78,#79,#80,#81));
#293=EDGE_LOOP('',(#82,#83,#84,#85,#86,#87));
#294=EDGE_LOOP('',(#88,#89,#90,#91,#92,#93));
#295=EDGE_LOOP('',(#94,#95,#96,#97));
#296=EDGE_LOOP('',(#98,#99,#100,#101));
#297=EDGE_LOOP('',(#102,#103,#104,#105));
#298=EDGE_LOOP('',(#106,#107,#108,#109));
#299=EDGE_LOOP('',(#110,#111,#112,#113));
#300=FACE_BOUND('',#282,.T.);
#301=FACE_BOUND('',#283,.T.);
#302=FACE_BOUND('',#284,.T.);
#303=FACE_BOUND('',#285,.T.);
#304=FACE_BOUND('',#286,.T.);
#305=FACE_BOUND('',#287,.T.);
#306=FACE_BOUND('',#288,.T.);
#307=FACE_BOUND('',#289,.T.);
#308=FACE_BOUND('',#290,.T.);
#309=FACE_BOUND('',#291,.T.);
#310=FACE_BOUND('',#292,.T.);
#311=FACE_BOUND('',#293,.T.);
#312=FACE_BOUND('',#294,.T.);
#313=FACE_BOUND('',#295,.T.);
#314=FACE_BOUND('',#296,.T.);
#315=FACE_BOUND('',#297,.T.);
#316=FACE_BOUND('',#298,.T.);
#317=FACE_BOUND('',#299,.T.);
#318=PLANE('',#365);
#319=PLANE('',#366);
#320=PLANE('',#367);
#321=PLANE('',#368);
#322=PLANE('',#369);
#323=PLANE('',#370);
#324=PLANE('',#372);
#325=PLANE('',#374);
#326=PLANE('',#375);
#327=PLANE('',#376);
#328=PLANE('',#377);
#329=PLANE('',#378);
#330=PLANE('',#380);
#331=PLANE('',#384);
#332=PLANE('',#385);
#333=PLANE('',#386);
#334=ADVANCED_FACE('',(#300),#318,.T.);
#335=ADVANCED_FACE('',(#301),#319,.F.);
#336=ADVANCED_FACE('',(#302),#320,.F.);
#337=ADVANCED_FACE('',(#303),#321,.F.);
#338=ADVANCED_FACE('',(#304),#322,.F.);
#339=ADVANCED_FACE('',(#305),#323,.T.);
#340=ADVANCED_FACE('',(#306),#324,.F.);
#341=ADVANCED_FACE('',(#307),#325,.T.);
#342=ADVANCED_FACE('',(#308),#326,.T.);
#343=ADVANCED_FACE('',(#309),#327,.F.);
#344=ADVANCED_FACE('',(#310),#328,.T.);
#345=ADVANCED_FACE('',(#311),#329,.F.);
#346=ADVANCED_FACE('',(#312),#330,.T.);
#347=ADVANCED_FACE('',(#313),#12,.F.);
#348=ADVANCED_FACE('',(#314),#13,.F.);
#349=ADVANCED_FACE('',(#315),#331,.F.);
#350=ADVANCED_FACE('',(#316),#332,.T.);
#351=ADVANCED_FACE('',(#317),#333,.T.);
#352=CLOSED_SHELL('',(#334,#335,#336,#337,#338,#339,#340,#341,#342,#343,
#344,#345,#346,#347,#348,#349,#350,#351));
#353=STYLED_ITEM('',(#354),#361);
#354=PRESENTATION_STYLE_ASSIGNMENT((#355));
#355=SURFACE_STYLE_USAGE(.BOTH.,#356);
#356=SURFACE_SIDE_STYLE('',(#357));
#357=SURFACE_STYLE_FILL_AREA(#358);
#358=FILL_AREA_STYLE('',(#359));
#359=FILL_AREA_STYLE_COLOUR('',#360);
#360=COLOUR_RGB('',0.615686274509804,0.811764705882353,0.929411764705882);
#361=MANIFOLD_SOLID_BREP('Part 1',#352);
#362=SHAPE_DEFINITION_REPRESENTATION(#582,#363);
#363=SHAPE_REPRESENTATION('Part 1',(#364),#577);
#364=AXIS2_PLACEMENT_3D('',#477,#387,#388);
#365=AXIS2_PLACEMENT_3D('',#478,#389,#390);
#366=AXIS2_PLACEMENT_3D('',#487,#395,#396);
#367=AXIS2_PLACEMENT_3D('',#496,#401,#402);
#368=AXIS2_PLACEMENT_3D('',#505,#407,#408);
#369=AXIS2_PLACEMENT_3D('',#514,#413,#414);
#370=AXIS2_PLACEMENT_3D('',#530,#424,#425);
#371=AXIS2_PLACEMENT_3D('',#531,#426,#427);
#372=AXIS2_PLACEMENT_3D('',#538,#431,#432);
#373=AXIS2_PLACEMENT_3D('',#539,#433,#434);
#374=AXIS2_PLACEMENT_3D('',#541,#436,#437);
#375=AXIS2_PLACEMENT_3D('',#556,#446,#447);
#376=AXIS2_PLACEMENT_3D('',#558,#449,#450);
#377=AXIS2_PLACEMENT_3D('',#562,#453,#454);
#378=AXIS2_PLACEMENT_3D('',#565,#457,#458);
#379=AXIS2_PLACEMENT_3D('',#566,#459,#460);
#380=AXIS2_PLACEMENT_3D('',#567,#461,#462);
#381=AXIS2_PLACEMENT_3D('',#568,#463,#464);
#382=AXIS2_PLACEMENT_3D('',#569,#465,#466);
#383=AXIS2_PLACEMENT_3D('',#570,#467,#468);
#384=AXIS2_PLACEMENT_3D('',#571,#469,#470);
#385=AXIS2_PLACEMENT_3D('',#573,#472,#473);
#386=AXIS2_PLACEMENT_3D('',#575,#475,#476);
#387=DIRECTION('',(0.,0.,1.));
#388=DIRECTION('',(1.,0.,0.));
#389=DIRECTION('',(0.,-1.,0.));
#390=DIRECTION('',(1.,0.,0.));
#391=DIRECTION('',(-1.,0.,0.));
#392=DIRECTION('',(0.,0.,1.));
#393=DIRECTION('',(-1.,0.,0.));
#394=DIRECTION('',(0.,0.,-1.));
#395=DIRECTION('',(0.,-1.,0.));
#396=DIRECTION('',(1.,0.,0.));
#397=DIRECTION('',(1.,0.,0.));
#398=DIRECTION('',(0.,0.,-1.));
#399=DIRECTION('',(-1.,0.,0.));
#400=DIRECTION('',(0.,0.,1.));
#401=DIRECTION('',(0.,-1.,0.));
#402=DIRECTION('',(1.,0.,0.));
#403=DIRECTION('',(1.,0.,0.));
#404=DIRECTION('',(0.,0.,1.));
#405=DIRECTION('',(-1.,0.,0.));
#406=DIRECTION('',(0.,0.,-1.));
#407=DIRECTION('',(0.,-1.,0.));
#408=DIRECTION('',(1.,0.,0.));
#409=DIRECTION('',(0.,0.,-1.));
#410=DIRECTION('',(1.,0.,0.));
#411=DIRECTION('',(0.,0.,1.));
#412=DIRECTION('',(-1.,0.,0.));
#413=DIRECTION('',(0.,0.,-1.));
#414=DIRECTION('',(-1.,0.,0.));
#415=DIRECTION('',(0.,1.,0.));
#416=DIRECTION('',(-1.,0.,0.));
#417=DIRECTION('',(0.,1.,0.));
#418=DIRECTION('',(0.,1.,0.));
#419=DIRECTION('',(0.,1.,0.));
#420=DIRECTION('',(-1.,0.,0.));
#421=DIRECTION('',(0.,1.,0.));
#422=DIRECTION('',(-1.,0.,0.));
#423=DIRECTION('',(0.,1.,0.));
#424=DIRECTION('',(1.,0.,0.));
#425=DIRECTION('',(0.,0.,-1.));
#426=DIRECTION('',(1.,0.,0.));
#427=DIRECTION('',(0.,0.,-1.));
#428=DIRECTION('',(0.,0.,-1.));
#429=DIRECTION('',(0.,1.,0.));
#430=DIRECTION('',(0.,0.,-1.));
#431=DIRECTION('',(1.,0.,0.));
#432=DIRECTION('',(0.,0.,-1.));
#433=DIRECTION('',(1.,0.,0.));
#434=DIRECTION('',(0.,0.,-1.));
#435=DIRECTION('',(0.,1.,0.));
#436=DIRECTION('',(0.,0.,-1.));
#437=DIRECTION('',(-1.,0.,0.));
#438=DIRECTION('',(0.,-1.,0.));
#439=DIRECTION('',(-1.,0.,0.));
#440=DIRECTION('',(-1.,0.,0.));
#441=DIRECTION('',(0.,1.,0.));
#442=DIRECTION('',(-1.,0.,0.));
#443=DIRECTION('',(0.,1.,0.));
#444=DIRECTION('',(0.,-1.,0.));
#445=DIRECTION('',(1.,0.,0.));
#446=DIRECTION('',(0.,-1.,0.));
#447=DIRECTION('',(1.,0.,0.));
#448=DIRECTION('',(0.,0.,1.));
#449=DIRECTION('',(0.,-1.,0.));
#450=DIRECTION('',(1.,0.,0.));
#451=DIRECTION('',(0.,0.,1.));
#452=DIRECTION('',(1.,0.,0.));
#453=DIRECTION('',(0.,1.,0.));
#454=DIRECTION('',(0.,0.,1.));
#455=DIRECTION('',(0.,0.,1.));
#456=DIRECTION('',(0.,0.,1.));
#457=DIRECTION('',(1.,0.,0.));
#458=DIRECTION('',(0.,0.,-1.));
#459=DIRECTION('',(1.,0.,0.));
#460=DIRECTION('',(0.,0.,-1.));
#461=DIRECTION('',(1.,0.,0.));
#462=DIRECTION('',(0.,0.,-1.));
#463=DIRECTION('',(1.,0.,0.));
#464=DIRECTION('',(0.,0.,-1.));
#465=DIRECTION('',(1.,0.,0.));
#466=DIRECTION('',(0.,0.,-1.));
#467=DIRECTION('',(1.,0.,0.));
#468=DIRECTION('',(0.,0.,-1.));
#469=DIRECTION('',(-1.,0.,0.));
#470=DIRECTION('',(0.,0.,1.));
#471=DIRECTION('',(0.,0.,1.));
#472=DIRECTION('',(-1.,0.,0.));
#473=DIRECTION('',(0.,0.,1.));
#474=DIRECTION('',(0.,0.,1.));
#475=DIRECTION('',(0.,-1.,0.));
#476=DIRECTION('',(1.,0.,0.));
#477=CARTESIAN_POINT('',(0.,0.,0.));
#478=CARTESIAN_POINT('',(0.,-0.03,-8.67361737988404E-19));
#479=CARTESIAN_POINT('',(0.,-0.03,-0.0035));
#480=CARTESIAN_POINT('',(-0.0025,-0.03,-0.0035));
#481=CARTESIAN_POINT('',(-0.0325,-0.03,-0.0035));
#482=CARTESIAN_POINT('',(-0.0025,-0.03,0.));
#483=CARTESIAN_POINT('',(-0.0025,-0.03,0.0035));
#484=CARTESIAN_POINT('',(0.,-0.03,0.0035));
#485=CARTESIAN_POINT('',(-0.0325,-0.03,0.0035));
#486=CARTESIAN_POINT('',(-0.0325,-0.03,-6.50521303491303E-19));
#487=CARTESIAN_POINT('',(0.,0.,-8.67361737988404E-19));
#488=CARTESIAN_POINT('',(-0.0394405220334178,0.,0.0025));
#489=CARTESIAN_POINT('',(-0.0325,0.,0.0025));
#490=CARTESIAN_POINT('',(-0.0275,0.,0.0025));
#491=CARTESIAN_POINT('',(-0.0325,0.,-6.50521303491303E-19));
#492=CARTESIAN_POINT('',(-0.0325,0.,0.0035));
#493=CARTESIAN_POINT('',(0.,0.,0.0035));
#494=CARTESIAN_POINT('',(-0.0275,0.,0.0035));
#495=CARTESIAN_POINT('',(-0.0275,0.,-0.0684405220334178));
#496=CARTESIAN_POINT('',(0.,0.,-8.67361737988404E-19));
#497=CARTESIAN_POINT('',(-0.0394405220334178,0.,0.0025));
#498=CARTESIAN_POINT('',(0.0275,0.,0.0025));
#499=CARTESIAN_POINT('',(0.0325,0.,0.0025));
#500=CARTESIAN_POINT('',(0.0275,0.,-0.0684405220334178));
#501=CARTESIAN_POINT('',(0.0275,0.,0.0035));
#502=CARTESIAN_POINT('',(0.,0.,0.0035));
#503=CARTESIAN_POINT('',(0.0325,0.,0.0035));
#504=CARTESIAN_POINT('',(0.0325,0.,-2.16840434497101E-19));
#505=CARTESIAN_POINT('',(0.,0.,-8.67361737988404E-19));
#506=CARTESIAN_POINT('',(-0.0325,0.,-6.50521303491303E-19));
#507=CARTESIAN_POINT('',(-0.0325,0.,-0.0025));
#508=CARTESIAN_POINT('',(-0.0325,0.,-0.0035));
#509=CARTESIAN_POINT('',(-0.0394405220334178,0.,-0.0025));
#510=CARTESIAN_POINT('',(-0.0275,0.,-0.0025));
#511=CARTESIAN_POINT('',(-0.0275,0.,-0.0684405220334178));
#512=CARTESIAN_POINT('',(-0.0275,0.,-0.0035));
#513=CARTESIAN_POINT('',(0.,0.,-0.0035));
#514=CARTESIAN_POINT('',(0.,-0.03,0.0035));
#515=CARTESIAN_POINT('',(0.0275,-0.0125,0.0035));
#516=CARTESIAN_POINT('',(0.0275,-0.025,0.0035));
#517=CARTESIAN_POINT('',(3.46944695195361E-18,-0.025,0.0035));
#518=CARTESIAN_POINT('',(-0.0275,-0.025,0.0035));
#519=CARTESIAN_POINT('',(-0.0275,-0.0125,0.0035));
#520=CARTESIAN_POINT('',(-0.0325,-0.03,0.0035));
#521=CARTESIAN_POINT('',(-0.0025,-0.06,0.0035));
#522=CARTESIAN_POINT('',(-0.0025,-0.06,0.0035));
#523=CARTESIAN_POINT('',(0.,-0.06,0.0035));
#524=CARTESIAN_POINT('',(0.0025,-0.06,0.0035));
#525=CARTESIAN_POINT('',(0.0025,-0.06,0.0035));
#526=CARTESIAN_POINT('',(0.0025,-0.03,0.0035));
#527=CARTESIAN_POINT('',(0.,-0.03,0.0035));
#528=CARTESIAN_POINT('',(0.0325,-0.03,0.0035));
#529=CARTESIAN_POINT('',(0.0325,-0.03,0.0035));
#530=CARTESIAN_POINT('',(0.0325,-0.03,-2.16840434497101E-19));
#531=CARTESIAN_POINT('',(0.0325,0.002625,-8.67361737988404E-19));
#532=CARTESIAN_POINT('',(0.0325,0.,-0.0025));
#533=CARTESIAN_POINT('',(0.0325,-0.03,-2.16840434497101E-19));
#534=CARTESIAN_POINT('',(0.0325,-0.03,-0.0035));
#535=CARTESIAN_POINT('',(0.0325,-0.03,-0.0035));
#536=CARTESIAN_POINT('',(0.0325,0.,-0.0035));
#537=CARTESIAN_POINT('',(0.0325,0.,-2.16840434497101E-19));
#538=CARTESIAN_POINT('',(-0.0325,-0.03,-6.50521303491303E-19));
#539=CARTESIAN_POINT('',(-0.0325,0.002625,-8.67361737988404E-19));
#540=CARTESIAN_POINT('',(-0.0325,-0.03,-0.0035));
#541=CARTESIAN_POINT('',(0.,-0.03,-0.0035));
#542=CARTESIAN_POINT('',(0.0275,-0.03,-0.0035));
#543=CARTESIAN_POINT('',(0.0275,0.,-0.0035));
#544=CARTESIAN_POINT('',(0.0275,-0.025,-0.0035));
#545=CARTESIAN_POINT('',(0.,0.,-0.0035));
#546=CARTESIAN_POINT('',(0.,-0.03,-0.0035));
#547=CARTESIAN_POINT('',(0.0025,-0.03,-0.0035));
#548=CARTESIAN_POINT('',(0.0025,-0.06,-0.0035));
#549=CARTESIAN_POINT('',(0.0025,-0.06,-0.0035));
#550=CARTESIAN_POINT('',(0.,-0.06,-0.0035));
#551=CARTESIAN_POINT('',(-0.0025,-0.06,-0.0035));
#552=CARTESIAN_POINT('',(-0.0025,-0.06,-0.0035));
#553=CARTESIAN_POINT('',(-0.0275,-0.03,-0.0035));
#554=CARTESIAN_POINT('',(-0.0275,-0.025,-0.0035));
#555=CARTESIAN_POINT('',(0.,-0.025,-0.0035));
#556=CARTESIAN_POINT('',(0.,-0.03,-8.67361737988404E-19));
#557=CARTESIAN_POINT('',(0.0025,-0.03,0.));
#558=CARTESIAN_POINT('',(0.,0.,-8.67361737988404E-19));
#559=CARTESIAN_POINT('',(0.0275,0.,-0.0684405220334178));
#560=CARTESIAN_POINT('',(0.0275,0.,-0.0025));
#561=CARTESIAN_POINT('',(-0.0394405220334178,0.,-0.0025));
#562=CARTESIAN_POINT('',(3.46944695195361E-18,-0.025,-0.0684405220334178));
#563=CARTESIAN_POINT('',(-0.0275,-0.025,-0.0684405220334178));
#564=CARTESIAN_POINT('',(0.0275,-0.025,-0.0684405220334178));
#565=CARTESIAN_POINT('',(0.0275,-0.0125,-0.0684405220334178));
#566=CARTESIAN_POINT('',(0.0275,0.002625,-8.67361737988404E-19));
#567=CARTESIAN_POINT('',(-0.0275,-0.0125,-0.0684405220334178));
#568=CARTESIAN_POINT('',(-0.0275,0.002625,-8.67361737988404E-19));
#569=CARTESIAN_POINT('',(-0.0394405220334178,0.002625,-8.67361737988404E-19));
#570=CARTESIAN_POINT('',(-0.0394405220334178,0.002625,-8.67361737988404E-19));
#571=CARTESIAN_POINT('',(0.0025,-0.06,0.));
#572=CARTESIAN_POINT('',(0.0025,-0.06,0.));
#573=CARTESIAN_POINT('',(-0.0025,-0.06,0.));
#574=CARTESIAN_POINT('',(-0.0025,-0.06,0.));
#575=CARTESIAN_POINT('',(0.,-0.06,-8.67361737988404E-19));
#576=MECHANICAL_DESIGN_GEOMETRIC_PRESENTATION_REPRESENTATION('',(#353),
#577);
#577=(
GEOMETRIC_REPRESENTATION_CONTEXT(3)
GLOBAL_UNCERTAINTY_ASSIGNED_CONTEXT((#578))
GLOBAL_UNIT_ASSIGNED_CONTEXT((#581,#580,#579))
REPRESENTATION_CONTEXT('Part 1','TOP_LEVEL_ASSEMBLY_PART')
);
#578=UNCERTAINTY_MEASURE_WITH_UNIT(LENGTH_MEASURE(1.E-8),#581,
'DISTANCE_ACCURACY_VALUE','Maximum Tolerance applied to model');
#579=(
NAMED_UNIT(*)
SI_UNIT($,.STERADIAN.)
SOLID_ANGLE_UNIT()
);
#580=(
NAMED_UNIT(*)
PLANE_ANGLE_UNIT()
SI_UNIT($,.RADIAN.)
);
#581=(
LENGTH_UNIT()
NAMED_UNIT(*)
SI_UNIT($,.METRE.)
);
#582=PRODUCT_DEFINITION_SHAPE('','',#583);
#583=PRODUCT_DEFINITION('','',#585,#584);
#584=PRODUCT_DEFINITION_CONTEXT('',#591,'design');
#585=PRODUCT_DEFINITION_FORMATION_WITH_SPECIFIED_SOURCE('','',#587,
 .NOT_KNOWN.);
#586=PRODUCT_RELATED_PRODUCT_CATEGORY('','',(#587));
#587=PRODUCT('Part 1','Part 1','Part 1',(#589));
#588=PRODUCT_CATEGORY('','');
#589=PRODUCT_CONTEXT('',#591,'mechanical');
#590=APPLICATION_PROTOCOL_DEFINITION('international standard',
'ap242_managed_model_based_3d_engineering',2020,#591);
#591=APPLICATION_CONTEXT('managed model based 3d engineering');
ENDSEC;
END-ISO-10303-21;
