ISO-10303-21;
HEADER;
/* Generated by software containing ST-Developer
 * from STEP Tools, Inc. (www.steptools.com) 
 */
/* OPTION: using custom renumber hook */

FILE_DESCRIPTION(
/* description */ ('STEP AP242 Edition 2',
'CAx-IF Rec.Pracs.---Representation and Presentation of Product Manufa
cturing Information (PMI)---4.0---2014-10-13',
'CAx-IF Rec.Pracs.---3D Tessellated Geometry---0.4---2014-09-14','2;1',
'CAx-IF Rec.Pracs.---User Defined Attributes---1.5---2016-08-15'),
/* implementation_level */ '2;1');

FILE_NAME(
/* name */ 'Part Studio 1',
/* time_stamp */ '2026-04-30T14:44:21Z',
/* author */ (''),
/* organization */ (''),
/* preprocessor_version */ 'ST-DEVELOPER v20',
/* originating_system */ 'ONSHAPE BY PTC INC, 1.214',
/* authorisation */ '  ');

FILE_SCHEMA (('AP242_MANAGED_MODEL_BASED_3D_ENGINEERING_MIM_LF { 1 0 10303 442 3 1 4 }'));
ENDSEC;

DATA;
#10=SHAPE_REPRESENTATION_RELATIONSHIP('','',#387,#12);
#11=SHAPE_REPRESENTATION_RELATIONSHIP('','',#388,#13);
#12=ADVANCED_BREP_SHAPE_REPRESENTATION('',(#383),#607);
#13=ADVANCED_BREP_SHAPE_REPRESENTATION('',(#384),#608);
#14=ORIENTED_EDGE('',*,*,#110,.F.);
#15=ORIENTED_EDGE('',*,*,#111,.F.);
#16=ORIENTED_EDGE('',*,*,#112,.T.);
#17=ORIENTED_EDGE('',*,*,#113,.T.);
#18=ORIENTED_EDGE('',*,*,#114,.T.);
#19=ORIENTED_EDGE('',*,*,#115,.F.);
#20=ORIENTED_EDGE('',*,*,#116,.F.);
#21=ORIENTED_EDGE('',*,*,#117,.F.);
#22=ORIENTED_EDGE('',*,*,#118,.F.);
#23=ORIENTED_EDGE('',*,*,#119,.T.);
#24=ORIENTED_EDGE('',*,*,#120,.F.);
#25=ORIENTED_EDGE('',*,*,#116,.T.);
#26=ORIENTED_EDGE('',*,*,#121,.F.);
#27=ORIENTED_EDGE('',*,*,#122,.T.);
#28=ORIENTED_EDGE('',*,*,#114,.F.);
#29=ORIENTED_EDGE('',*,*,#123,.T.);
#30=ORIENTED_EDGE('',*,*,#124,.F.);
#31=ORIENTED_EDGE('',*,*,#125,.T.);
#32=ORIENTED_EDGE('',*,*,#126,.T.);
#33=ORIENTED_EDGE('',*,*,#111,.T.);
#34=ORIENTED_EDGE('',*,*,#127,.F.);
#35=ORIENTED_EDGE('',*,*,#124,.T.);
#36=ORIENTED_EDGE('',*,*,#110,.T.);
#37=ORIENTED_EDGE('',*,*,#128,.F.);
#38=ORIENTED_EDGE('',*,*,#129,.F.);
#39=ORIENTED_EDGE('',*,*,#123,.F.);
#40=ORIENTED_EDGE('',*,*,#117,.T.);
#41=ORIENTED_EDGE('',*,*,#120,.T.);
#42=ORIENTED_EDGE('',*,*,#126,.F.);
#43=ORIENTED_EDGE('',*,*,#130,.T.);
#44=ORIENTED_EDGE('',*,*,#118,.T.);
#45=ORIENTED_EDGE('',*,*,#115,.T.);
#46=ORIENTED_EDGE('',*,*,#122,.F.);
#47=ORIENTED_EDGE('',*,*,#131,.T.);
#48=ORIENTED_EDGE('',*,*,#132,.T.);
#49=ORIENTED_EDGE('',*,*,#112,.F.);
#50=ORIENTED_EDGE('',*,*,#132,.F.);
#51=ORIENTED_EDGE('',*,*,#133,.T.);
#52=ORIENTED_EDGE('',*,*,#128,.T.);
#53=ORIENTED_EDGE('',*,*,#113,.F.);
#54=ORIENTED_EDGE('',*,*,#121,.T.);
#55=ORIENTED_EDGE('',*,*,#129,.T.);
#56=ORIENTED_EDGE('',*,*,#133,.F.);
#57=ORIENTED_EDGE('',*,*,#131,.F.);
#58=ORIENTED_EDGE('',*,*,#127,.T.);
#59=ORIENTED_EDGE('',*,*,#119,.F.);
#60=ORIENTED_EDGE('',*,*,#130,.F.);
#61=ORIENTED_EDGE('',*,*,#125,.F.);
#62=ORIENTED_EDGE('',*,*,#134,.F.);
#63=ORIENTED_EDGE('',*,*,#135,.F.);
#64=ORIENTED_EDGE('',*,*,#136,.T.);
#65=ORIENTED_EDGE('',*,*,#137,.T.);
#66=ORIENTED_EDGE('',*,*,#138,.F.);
#67=ORIENTED_EDGE('',*,*,#139,.F.);
#68=ORIENTED_EDGE('',*,*,#140,.F.);
#69=ORIENTED_EDGE('',*,*,#141,.T.);
#70=ORIENTED_EDGE('',*,*,#142,.T.);
#71=ORIENTED_EDGE('',*,*,#136,.F.);
#72=ORIENTED_EDGE('',*,*,#143,.F.);
#73=ORIENTED_EDGE('',*,*,#140,.T.);
#74=ORIENTED_EDGE('',*,*,#144,.F.);
#75=ORIENTED_EDGE('',*,*,#141,.F.);
#76=ORIENTED_EDGE('',*,*,#143,.T.);
#77=ORIENTED_EDGE('',*,*,#135,.T.);
#78=ORIENTED_EDGE('',*,*,#145,.F.);
#79=ORIENTED_EDGE('',*,*,#146,.F.);
#80=ORIENTED_EDGE('',*,*,#147,.F.);
#81=ORIENTED_EDGE('',*,*,#148,.T.);
#82=ORIENTED_EDGE('',*,*,#139,.T.);
#83=ORIENTED_EDGE('',*,*,#149,.T.);
#84=ORIENTED_EDGE('',*,*,#150,.T.);
#85=ORIENTED_EDGE('',*,*,#151,.F.);
#86=ORIENTED_EDGE('',*,*,#152,.F.);
#87=ORIENTED_EDGE('',*,*,#153,.T.);
#88=ORIENTED_EDGE('',*,*,#137,.F.);
#89=ORIENTED_EDGE('',*,*,#142,.F.);
#90=ORIENTED_EDGE('',*,*,#151,.T.);
#91=ORIENTED_EDGE('',*,*,#154,.T.);
#92=ORIENTED_EDGE('',*,*,#147,.T.);
#93=ORIENTED_EDGE('',*,*,#155,.F.);
#94=ORIENTED_EDGE('',*,*,#156,.F.);
#95=ORIENTED_EDGE('',*,*,#148,.F.);
#96=ORIENTED_EDGE('',*,*,#154,.F.);
#97=ORIENTED_EDGE('',*,*,#150,.F.);
#98=ORIENTED_EDGE('',*,*,#146,.T.);
#99=ORIENTED_EDGE('',*,*,#157,.T.);
#100=ORIENTED_EDGE('',*,*,#152,.T.);
#101=ORIENTED_EDGE('',*,*,#155,.T.);
#102=ORIENTED_EDGE('',*,*,#145,.T.);
#103=ORIENTED_EDGE('',*,*,#134,.T.);
#104=ORIENTED_EDGE('',*,*,#153,.F.);
#105=ORIENTED_EDGE('',*,*,#157,.F.);
#106=ORIENTED_EDGE('',*,*,#138,.T.);
#107=ORIENTED_EDGE('',*,*,#144,.T.);
#108=ORIENTED_EDGE('',*,*,#156,.T.);
#109=ORIENTED_EDGE('',*,*,#149,.F.);
#110=EDGE_CURVE('',#158,#159,#190,.T.);
#111=EDGE_CURVE('',#160,#158,#191,.T.);
#112=EDGE_CURVE('',#160,#161,#192,.T.);
#113=EDGE_CURVE('',#161,#159,#193,.T.);
#114=EDGE_CURVE('',#162,#163,#194,.T.);
#115=EDGE_CURVE('',#164,#163,#195,.T.);
#116=EDGE_CURVE('',#165,#164,#196,.T.);
#117=EDGE_CURVE('',#162,#165,#197,.T.);
#118=EDGE_CURVE('',#166,#164,#198,.T.);
#119=EDGE_CURVE('',#166,#167,#199,.T.);
#120=EDGE_CURVE('',#165,#167,#200,.T.);
#121=EDGE_CURVE('',#168,#169,#201,.T.);
#122=EDGE_CURVE('',#168,#163,#202,.T.);
#123=EDGE_CURVE('',#162,#169,#203,.T.);
#124=EDGE_CURVE('',#170,#158,#204,.T.);
#125=EDGE_CURVE('',#170,#171,#205,.T.);
#126=EDGE_CURVE('',#171,#160,#206,.T.);
#127=EDGE_CURVE('',#170,#167,#207,.T.);
#128=EDGE_CURVE('',#172,#159,#208,.T.);
#129=EDGE_CURVE('',#169,#172,#209,.T.);
#130=EDGE_CURVE('',#171,#166,#210,.T.);
#131=EDGE_CURVE('',#168,#173,#211,.T.);
#132=EDGE_CURVE('',#173,#161,#212,.T.);
#133=EDGE_CURVE('',#173,#172,#213,.T.);
#134=EDGE_CURVE('',#174,#175,#214,.T.);
#135=EDGE_CURVE('',#176,#174,#215,.T.);
#136=EDGE_CURVE('',#176,#177,#216,.T.);
#137=EDGE_CURVE('',#177,#175,#217,.T.);
#138=EDGE_CURVE('',#178,#179,#218,.T.);
#139=EDGE_CURVE('',#180,#178,#219,.T.);
#140=EDGE_CURVE('',#181,#180,#220,.T.);
#141=EDGE_CURVE('',#181,#179,#221,.T.);
#142=EDGE_CURVE('',#180,#177,#222,.T.);
#143=EDGE_CURVE('',#181,#176,#223,.T.);
#144=EDGE_CURVE('',#179,#182,#224,.T.);
#145=EDGE_CURVE('',#183,#174,#225,.T.);
#146=EDGE_CURVE('',#184,#183,#226,.T.);
#147=EDGE_CURVE('',#185,#184,#227,.T.);
#148=EDGE_CURVE('',#185,#182,#228,.T.);
#149=EDGE_CURVE('',#178,#186,#229,.T.);
#150=EDGE_CURVE('',#186,#187,#230,.T.);
#151=EDGE_CURVE('',#188,#187,#231,.T.);
#152=EDGE_CURVE('',#189,#188,#232,.T.);
#153=EDGE_CURVE('',#189,#175,#233,.T.);
#154=EDGE_CURVE('',#187,#185,#234,.T.);
#155=EDGE_CURVE('',#188,#184,#235,.T.);
#156=EDGE_CURVE('',#182,#186,#236,.T.);
#157=EDGE_CURVE('',#183,#189,#237,.T.);
#158=VERTEX_POINT('',#506);
#159=VERTEX_POINT('',#507);
#160=VERTEX_POINT('',#509);
#161=VERTEX_POINT('',#511);
#162=VERTEX_POINT('',#515);
#163=VERTEX_POINT('',#516);
#164=VERTEX_POINT('',#518);
#165=VERTEX_POINT('',#520);
#166=VERTEX_POINT('',#524);
#167=VERTEX_POINT('',#526);
#168=VERTEX_POINT('',#530);
#169=VERTEX_POINT('',#531);
#170=VERTEX_POINT('',#536);
#171=VERTEX_POINT('',#538);
#172=VERTEX_POINT('',#543);
#173=VERTEX_POINT('',#548);
#174=VERTEX_POINT('',#557);
#175=VERTEX_POINT('',#558);
#176=VERTEX_POINT('',#560);
#177=VERTEX_POINT('',#562);
#178=VERTEX_POINT('',#566);
#179=VERTEX_POINT('',#567);
#180=VERTEX_POINT('',#569);
#181=VERTEX_POINT('',#571);
#182=VERTEX_POINT('',#578);
#183=VERTEX_POINT('',#580);
#184=VERTEX_POINT('',#582);
#185=VERTEX_POINT('',#584);
#186=VERTEX_POINT('',#588);
#187=VERTEX_POINT('',#590);
#188=VERTEX_POINT('',#592);
#189=VERTEX_POINT('',#594);
#190=LINE('',#505,#238);
#191=LINE('',#508,#239);
#192=LINE('',#510,#240);
#193=LINE('',#512,#241);
#194=LINE('',#514,#242);
#195=LINE('',#517,#243);
#196=LINE('',#519,#244);
#197=LINE('',#521,#245);
#198=LINE('',#523,#246);
#199=LINE('',#525,#247);
#200=LINE('',#527,#248);
#201=LINE('',#529,#249);
#202=LINE('',#532,#250);
#203=LINE('',#533,#251);
#204=LINE('',#535,#252);
#205=LINE('',#537,#253);
#206=LINE('',#539,#254);
#207=LINE('',#541,#255);
#208=LINE('',#542,#256);
#209=LINE('',#544,#257);
#210=LINE('',#546,#258);
#211=LINE('',#547,#259);
#212=LINE('',#549,#260);
#213=LINE('',#551,#261);
#214=LINE('',#556,#262);
#215=LINE('',#559,#263);
#216=LINE('',#561,#264);
#217=LINE('',#563,#265);
#218=LINE('',#565,#266);
#219=LINE('',#568,#267);
#220=LINE('',#570,#268);
#221=LINE('',#572,#269);
#222=LINE('',#574,#270);
#223=LINE('',#575,#271);
#224=LINE('',#577,#272);
#225=LINE('',#579,#273);
#226=LINE('',#581,#274);
#227=LINE('',#583,#275);
#228=LINE('',#585,#276);
#229=LINE('',#587,#277);
#230=LINE('',#589,#278);
#231=LINE('',#591,#279);
#232=LINE('',#593,#280);
#233=LINE('',#595,#281);
#234=LINE('',#597,#282);
#235=LINE('',#598,#283);
#236=LINE('',#600,#284);
#237=LINE('',#602,#285);
#238=VECTOR('',#415,1.);
#239=VECTOR('',#416,1.);
#240=VECTOR('',#417,1.);
#241=VECTOR('',#418,1.);
#242=VECTOR('',#421,1.);
#243=VECTOR('',#422,1.);
#244=VECTOR('',#423,1.);
#245=VECTOR('',#424,1.);
#246=VECTOR('',#427,1.);
#247=VECTOR('',#428,1.);
#248=VECTOR('',#429,1.);
#249=VECTOR('',#432,1.);
#250=VECTOR('',#433,1.);
#251=VECTOR('',#434,1.);
#252=VECTOR('',#437,1.);
#253=VECTOR('',#438,1.);
#254=VECTOR('',#439,1.);
#255=VECTOR('',#442,1.);
#256=VECTOR('',#443,1.);
#257=VECTOR('',#444,1.);
#258=VECTOR('',#447,1.);
#259=VECTOR('',#448,1.);
#260=VECTOR('',#449,1.);
#261=VECTOR('',#452,1.);
#262=VECTOR('',#461,1.);
#263=VECTOR('',#462,1.);
#264=VECTOR('',#463,1.);
#265=VECTOR('',#464,1.);
#266=VECTOR('',#467,1.);
#267=VECTOR('',#468,1.);
#268=VECTOR('',#469,1.);
#269=VECTOR('',#470,1.);
#270=VECTOR('',#473,1.);
#271=VECTOR('',#474,1.);
#272=VECTOR('',#477,1.);
#273=VECTOR('',#478,1.);
#274=VECTOR('',#479,1.);
#275=VECTOR('',#480,1.);
#276=VECTOR('',#481,1.);
#277=VECTOR('',#484,1.);
#278=VECTOR('',#485,1.);
#279=VECTOR('',#486,1.);
#280=VECTOR('',#487,1.);
#281=VECTOR('',#488,1.);
#282=VECTOR('',#491,1.);
#283=VECTOR('',#492,1.);
#284=VECTOR('',#495,1.);
#285=VECTOR('',#498,1.);
#286=EDGE_LOOP('',(#14,#15,#16,#17));
#287=EDGE_LOOP('',(#18,#19,#20,#21));
#288=EDGE_LOOP('',(#22,#23,#24,#25));
#289=EDGE_LOOP('',(#26,#27,#28,#29));
#290=EDGE_LOOP('',(#30,#31,#32,#33));
#291=EDGE_LOOP('',(#34,#35,#36,#37,#38,#39,#40,#41));
#292=EDGE_LOOP('',(#42,#43,#44,#45,#46,#47,#48,#49));
#293=EDGE_LOOP('',(#50,#51,#52,#53));
#294=EDGE_LOOP('',(#54,#55,#56,#57));
#295=EDGE_LOOP('',(#58,#59,#60,#61));
#296=EDGE_LOOP('',(#62,#63,#64,#65));
#297=EDGE_LOOP('',(#66,#67,#68,#69));
#298=EDGE_LOOP('',(#70,#71,#72,#73));
#299=EDGE_LOOP('',(#74,#75,#76,#77,#78,#79,#80,#81));
#300=EDGE_LOOP('',(#82,#83,#84,#85,#86,#87,#88,#89));
#301=EDGE_LOOP('',(#90,#91,#92,#93));
#302=EDGE_LOOP('',(#94,#95,#96,#97));
#303=EDGE_LOOP('',(#98,#99,#100,#101));
#304=EDGE_LOOP('',(#102,#103,#104,#105));
#305=EDGE_LOOP('',(#106,#107,#108,#109));
#306=FACE_BOUND('',#286,.T.);
#307=FACE_BOUND('',#287,.T.);
#308=FACE_BOUND('',#288,.T.);
#309=FACE_BOUND('',#289,.T.);
#310=FACE_BOUND('',#290,.T.);
#311=FACE_BOUND('',#291,.T.);
#312=FACE_BOUND('',#292,.T.);
#313=FACE_BOUND('',#293,.T.);
#314=FACE_BOUND('',#294,.T.);
#315=FACE_BOUND('',#295,.T.);
#316=FACE_BOUND('',#296,.T.);
#317=FACE_BOUND('',#297,.T.);
#318=FACE_BOUND('',#298,.T.);
#319=FACE_BOUND('',#299,.T.);
#320=FACE_BOUND('',#300,.T.);
#321=FACE_BOUND('',#301,.T.);
#322=FACE_BOUND('',#302,.T.);
#323=FACE_BOUND('',#303,.T.);
#324=FACE_BOUND('',#304,.T.);
#325=FACE_BOUND('',#305,.T.);
#326=PLANE('',#390);
#327=PLANE('',#391);
#328=PLANE('',#392);
#329=PLANE('',#393);
#330=PLANE('',#394);
#331=PLANE('',#395);
#332=PLANE('',#396);
#333=PLANE('',#397);
#334=PLANE('',#398);
#335=PLANE('',#399);
#336=PLANE('',#401);
#337=PLANE('',#402);
#338=PLANE('',#403);
#339=PLANE('',#404);
#340=PLANE('',#405);
#341=PLANE('',#406);
#342=PLANE('',#407);
#343=PLANE('',#408);
#344=PLANE('',#409);
#345=PLANE('',#410);
#346=ADVANCED_FACE('',(#306),#326,.T.);
#347=ADVANCED_FACE('',(#307),#327,.T.);
#348=ADVANCED_FACE('',(#308),#328,.T.);
#349=ADVANCED_FACE('',(#309),#329,.F.);
#350=ADVANCED_FACE('',(#310),#330,.T.);
#351=ADVANCED_FACE('',(#311),#331,.F.);
#352=ADVANCED_FACE('',(#312),#332,.T.);
#353=ADVANCED_FACE('',(#313),#333,.F.);
#354=ADVANCED_FACE('',(#314),#334,.T.);
#355=ADVANCED_FACE('',(#315),#335,.T.);
#356=ADVANCED_FACE('',(#316),#336,.F.);
#357=ADVANCED_FACE('',(#317),#337,.T.);
#358=ADVANCED_FACE('',(#318),#338,.F.);
#359=ADVANCED_FACE('',(#319),#339,.T.);
#360=ADVANCED_FACE('',(#320),#340,.F.);
#361=ADVANCED_FACE('',(#321),#341,.F.);
#362=ADVANCED_FACE('',(#322),#342,.T.);
#363=ADVANCED_FACE('',(#323),#343,.F.);
#364=ADVANCED_FACE('',(#324),#344,.F.);
#365=ADVANCED_FACE('',(#325),#345,.F.);
#366=CLOSED_SHELL('',(#346,#347,#348,#349,#350,#351,#352,#353,#354,#355));
#367=CLOSED_SHELL('',(#356,#357,#358,#359,#360,#361,#362,#363,#364,#365));
#368=STYLED_ITEM('',(#370),#383);
#369=STYLED_ITEM('',(#371),#384);
#370=PRESENTATION_STYLE_ASSIGNMENT((#372));
#371=PRESENTATION_STYLE_ASSIGNMENT((#373));
#372=SURFACE_STYLE_USAGE(.BOTH.,#374);
#373=SURFACE_STYLE_USAGE(.BOTH.,#375);
#374=SURFACE_SIDE_STYLE('',(#376));
#375=SURFACE_SIDE_STYLE('',(#377));
#376=SURFACE_STYLE_FILL_AREA(#378);
#377=SURFACE_STYLE_FILL_AREA(#379);
#378=FILL_AREA_STYLE('',(#380));
#379=FILL_AREA_STYLE('',(#381));
#380=FILL_AREA_STYLE_COLOUR('',#382);
#381=FILL_AREA_STYLE_COLOUR('',#382);
#382=COLOUR_RGB('',0.615686274509804,0.811764705882353,0.929411764705882);
#383=MANIFOLD_SOLID_BREP('Part 2',#366);
#384=MANIFOLD_SOLID_BREP('Part 1',#367);
#385=SHAPE_DEFINITION_REPRESENTATION(#617,#387);
#386=SHAPE_DEFINITION_REPRESENTATION(#618,#388);
#387=SHAPE_REPRESENTATION('Part 2',(#389),#607);
#388=SHAPE_REPRESENTATION('Part 1',(#400),#608);
#389=AXIS2_PLACEMENT_3D('',#503,#411,#412);
#390=AXIS2_PLACEMENT_3D('',#504,#413,#414);
#391=AXIS2_PLACEMENT_3D('',#513,#419,#420);
#392=AXIS2_PLACEMENT_3D('',#522,#425,#426);
#393=AXIS2_PLACEMENT_3D('',#528,#430,#431);
#394=AXIS2_PLACEMENT_3D('',#534,#435,#436);
#395=AXIS2_PLACEMENT_3D('',#540,#440,#441);
#396=AXIS2_PLACEMENT_3D('',#545,#445,#446);
#397=AXIS2_PLACEMENT_3D('',#550,#450,#451);
#398=AXIS2_PLACEMENT_3D('',#552,#453,#454);
#399=AXIS2_PLACEMENT_3D('',#553,#455,#456);
#400=AXIS2_PLACEMENT_3D('',#554,#457,#458);
#401=AXIS2_PLACEMENT_3D('',#555,#459,#460);
#402=AXIS2_PLACEMENT_3D('',#564,#465,#466);
#403=AXIS2_PLACEMENT_3D('',#573,#471,#472);
#404=AXIS2_PLACEMENT_3D('',#576,#475,#476);
#405=AXIS2_PLACEMENT_3D('',#586,#482,#483);
#406=AXIS2_PLACEMENT_3D('',#596,#489,#490);
#407=AXIS2_PLACEMENT_3D('',#599,#493,#494);
#408=AXIS2_PLACEMENT_3D('',#601,#496,#497);
#409=AXIS2_PLACEMENT_3D('',#603,#499,#500);
#410=AXIS2_PLACEMENT_3D('',#604,#501,#502);
#411=DIRECTION('',(0.,0.,1.));
#412=DIRECTION('',(1.,0.,0.));
#413=DIRECTION('',(-1.,0.,0.));
#414=DIRECTION('',(0.,0.,1.));
#415=DIRECTION('',(0.,0.,1.));
#416=DIRECTION('',(0.,1.,0.));
#417=DIRECTION('',(0.,0.,1.));
#418=DIRECTION('',(0.,1.,0.));
#419=DIRECTION('',(1.,0.,0.));
#420=DIRECTION('',(0.,0.,-1.));
#421=DIRECTION('',(0.,-1.,0.));
#422=DIRECTION('',(0.,0.,1.));
#423=DIRECTION('',(0.,-1.,0.));
#424=DIRECTION('',(0.,0.,-1.));
#425=DIRECTION('',(-1.22053897261841E-16,0.,1.));
#426=DIRECTION('',(1.,0.,1.22053897261841E-16));
#427=DIRECTION('',(-1.,0.,-1.22053897261841E-16));
#428=DIRECTION('',(0.,1.,0.));
#429=DIRECTION('',(1.,0.,1.22053897261841E-16));
#430=DIRECTION('',(-1.24650788692944E-16,0.,1.));
#431=DIRECTION('',(1.,0.,1.24650788692944E-16));
#432=DIRECTION('',(0.,1.,0.));
#433=DIRECTION('',(-1.,0.,-1.24650788692944E-16));
#434=DIRECTION('',(1.,0.,1.24650788692944E-16));
#435=DIRECTION('',(1.18952466924124E-16,0.,-1.));
#436=DIRECTION('',(-1.,0.,-1.18952466924124E-16));
#437=DIRECTION('',(-1.,0.,-1.18952466924124E-16));
#438=DIRECTION('',(0.,-1.,0.));
#439=DIRECTION('',(-1.,0.,-1.18952466924124E-16));
#440=DIRECTION('',(0.,-1.,0.));
#441=DIRECTION('',(1.,0.,0.));
#442=DIRECTION('',(-1.18952466924124E-16,0.,1.));
#443=DIRECTION('',(-1.,0.,-1.18952466924124E-16));
#444=DIRECTION('',(-1.18952466924124E-16,0.,1.));
#445=DIRECTION('',(0.,-1.,0.));
#446=DIRECTION('',(1.,0.,0.));
#447=DIRECTION('',(-1.18952466924124E-16,0.,1.));
#448=DIRECTION('',(-1.18952466924124E-16,0.,1.));
#449=DIRECTION('',(-1.,0.,-1.18952466924124E-16));
#450=DIRECTION('',(1.18952466924124E-16,0.,-1.));
#451=DIRECTION('',(-1.,0.,-1.18952466924124E-16));
#452=DIRECTION('',(0.,1.,0.));
#453=DIRECTION('',(1.,0.,1.18952466924124E-16));
#454=DIRECTION('',(1.18952466924124E-16,0.,-1.));
#455=DIRECTION('',(1.,0.,1.18952466924124E-16));
#456=DIRECTION('',(1.18952466924124E-16,0.,-1.));
#457=DIRECTION('',(0.,0.,1.));
#458=DIRECTION('',(1.,0.,0.));
#459=DIRECTION('',(1.18952466924124E-16,0.,-1.));
#460=DIRECTION('',(-1.,0.,-1.18952466924124E-16));
#461=DIRECTION('',(0.,1.,0.));
#462=DIRECTION('',(-1.,0.,-1.18952466924124E-16));
#463=DIRECTION('',(0.,1.,0.));
#464=DIRECTION('',(-1.,0.,-1.18952466924124E-16));
#465=DIRECTION('',(1.18952466924124E-16,0.,-1.));
#466=DIRECTION('',(-1.,0.,-1.18952466924124E-16));
#467=DIRECTION('',(0.,-1.,0.));
#468=DIRECTION('',(-1.,0.,-1.18952466924124E-16));
#469=DIRECTION('',(0.,1.,0.));
#470=DIRECTION('',(-1.,0.,-1.18952466924124E-16));
#471=DIRECTION('',(-1.,0.,0.));
#472=DIRECTION('',(0.,0.,1.));
#473=DIRECTION('',(0.,0.,1.));
#474=DIRECTION('',(0.,0.,1.));
#475=DIRECTION('',(0.,-1.,0.));
#476=DIRECTION('',(1.,0.,0.));
#477=DIRECTION('',(-1.18952466924124E-16,0.,1.));
#478=DIRECTION('',(-1.18952466924124E-16,0.,1.));
#479=DIRECTION('',(-1.,0.,-1.24650788692944E-16));
#480=DIRECTION('',(0.,0.,1.));
#481=DIRECTION('',(-1.,0.,-1.22053897261841E-16));
#482=DIRECTION('',(0.,-1.,0.));
#483=DIRECTION('',(1.,0.,0.));
#484=DIRECTION('',(-1.18952466924124E-16,0.,1.));
#485=DIRECTION('',(1.,0.,1.22053897261841E-16));
#486=DIRECTION('',(0.,0.,-1.));
#487=DIRECTION('',(1.,0.,1.24650788692944E-16));
#488=DIRECTION('',(-1.18952466924124E-16,0.,1.));
#489=DIRECTION('',(1.,0.,0.));
#490=DIRECTION('',(0.,0.,-1.));
#491=DIRECTION('',(0.,-1.,0.));
#492=DIRECTION('',(0.,-1.,0.));
#493=DIRECTION('',(-1.22053897261841E-16,0.,1.));
#494=DIRECTION('',(1.,0.,1.22053897261841E-16));
#495=DIRECTION('',(0.,1.,0.));
#496=DIRECTION('',(-1.24650788692944E-16,0.,1.));
#497=DIRECTION('',(1.,0.,1.24650788692944E-16));
#498=DIRECTION('',(0.,1.,0.));
#499=DIRECTION('',(1.,0.,1.18952466924124E-16));
#500=DIRECTION('',(1.18952466924124E-16,0.,-1.));
#501=DIRECTION('',(1.,0.,1.18952466924124E-16));
#502=DIRECTION('',(1.18952466924124E-16,0.,-1.));
#503=CARTESIAN_POINT('',(0.,0.,0.));
#504=CARTESIAN_POINT('',(-0.04375,-0.25,-4.33680868994202E-18));
#505=CARTESIAN_POINT('',(-0.04375,0.,-4.33680868994202E-18));
#506=CARTESIAN_POINT('',(-0.04375,0.,-0.0055));
#507=CARTESIAN_POINT('',(-0.04375,0.,0.0055));
#508=CARTESIAN_POINT('',(-0.04375,-0.25,-0.0055));
#509=CARTESIAN_POINT('',(-0.04375,-0.25,-0.0055));
#510=CARTESIAN_POINT('',(-0.04375,-0.25,-4.33680868994202E-18));
#511=CARTESIAN_POINT('',(-0.04375,-0.25,0.0055));
#512=CARTESIAN_POINT('',(-0.04375,-0.25,0.0055));
#513=CARTESIAN_POINT('',(-0.04175,2.000000000002E-6,-5.85469173142172E-18));
#514=CARTESIAN_POINT('',(-0.04175,2.000000000002E-6,0.0015));
#515=CARTESIAN_POINT('',(-0.04175,0.,0.0015));
#516=CARTESIAN_POINT('',(-0.04175,-0.25,0.0015));
#517=CARTESIAN_POINT('',(-0.04175,-0.25,-5.85469173142172E-18));
#518=CARTESIAN_POINT('',(-0.04175,-0.25,-0.0015));
#519=CARTESIAN_POINT('',(-0.04175,2.000000000002E-6,-0.0015));
#520=CARTESIAN_POINT('',(-0.04175,0.,-0.0015));
#521=CARTESIAN_POINT('',(-0.04175,0.,-5.85469173142172E-18));
#522=CARTESIAN_POINT('',(0.,2.000000000002E-6,-0.0015));
#523=CARTESIAN_POINT('',(0.,-0.25,-0.0015));
#524=CARTESIAN_POINT('',(-0.03675,-0.25,-0.0015));
#525=CARTESIAN_POINT('',(-0.03675,2.000000000002E-6,-0.0015));
#526=CARTESIAN_POINT('',(-0.03675,0.,-0.0015));
#527=CARTESIAN_POINT('',(0.,0.,-0.0015));
#528=CARTESIAN_POINT('',(0.,2.000000000002E-6,0.0015));
#529=CARTESIAN_POINT('',(-0.03675,2.000000000002E-6,0.0015));
#530=CARTESIAN_POINT('',(-0.03675,-0.25,0.0015));
#531=CARTESIAN_POINT('',(-0.03675,0.,0.0015));
#532=CARTESIAN_POINT('',(0.,-0.25,0.0015));
#533=CARTESIAN_POINT('',(0.,0.,0.0015));
#534=CARTESIAN_POINT('',(0.,-0.25,-0.0055));
#535=CARTESIAN_POINT('',(0.,0.,-0.0055));
#536=CARTESIAN_POINT('',(-0.03675,0.,-0.0055));
#537=CARTESIAN_POINT('',(-0.03675,-0.25,-0.0055));
#538=CARTESIAN_POINT('',(-0.03675,-0.25,-0.0055));
#539=CARTESIAN_POINT('',(0.,-0.25,-0.0055));
#540=CARTESIAN_POINT('',(0.,0.,0.));
#541=CARTESIAN_POINT('',(-0.03675,0.,-0.259608566574774));
#542=CARTESIAN_POINT('',(0.,0.,0.0055));
#543=CARTESIAN_POINT('',(-0.03675,0.,0.0055));
#544=CARTESIAN_POINT('',(-0.03675,0.,-0.259608566574774));
#545=CARTESIAN_POINT('',(0.,-0.25,0.));
#546=CARTESIAN_POINT('',(-0.03675,-0.25,-0.259608566574774));
#547=CARTESIAN_POINT('',(-0.03675,-0.25,-0.259608566574774));
#548=CARTESIAN_POINT('',(-0.03675,-0.25,0.0055));
#549=CARTESIAN_POINT('',(0.,-0.25,0.0055));
#550=CARTESIAN_POINT('',(0.,-0.25,0.0055));
#551=CARTESIAN_POINT('',(-0.03675,-0.125,0.0055));
#552=CARTESIAN_POINT('',(-0.03675,-0.125,-0.259608566574774));
#553=CARTESIAN_POINT('',(-0.03675,-0.125,-0.259608566574774));
#554=CARTESIAN_POINT('',(0.,0.,0.));
#555=CARTESIAN_POINT('',(0.,-0.25,0.0055));
#556=CARTESIAN_POINT('',(0.03675,-0.125,0.0055));
#557=CARTESIAN_POINT('',(0.03675,-0.25,0.0055));
#558=CARTESIAN_POINT('',(0.03675,0.,0.0055));
#559=CARTESIAN_POINT('',(0.,-0.25,0.0055));
#560=CARTESIAN_POINT('',(0.04375,-0.25,0.0055));
#561=CARTESIAN_POINT('',(0.04375,-0.25,0.0055));
#562=CARTESIAN_POINT('',(0.04375,0.,0.0055));
#563=CARTESIAN_POINT('',(0.,0.,0.0055));
#564=CARTESIAN_POINT('',(0.,-0.25,-0.0055));
#565=CARTESIAN_POINT('',(0.03675,-0.25,-0.0055));
#566=CARTESIAN_POINT('',(0.03675,0.,-0.0055));
#567=CARTESIAN_POINT('',(0.03675,-0.25,-0.0055));
#568=CARTESIAN_POINT('',(0.,0.,-0.0055));
#569=CARTESIAN_POINT('',(0.04375,0.,-0.0055));
#570=CARTESIAN_POINT('',(0.04375,-0.25,-0.0055));
#571=CARTESIAN_POINT('',(0.04375,-0.25,-0.0055));
#572=CARTESIAN_POINT('',(0.,-0.25,-0.0055));
#573=CARTESIAN_POINT('',(0.04375,-0.25,7.80625564189563E-18));
#574=CARTESIAN_POINT('',(0.04375,0.,7.80625564189563E-18));
#575=CARTESIAN_POINT('',(0.04375,-0.25,7.80625564189563E-18));
#576=CARTESIAN_POINT('',(0.,-0.25,0.));
#577=CARTESIAN_POINT('',(0.03675,-0.25,-0.259608566574774));
#578=CARTESIAN_POINT('',(0.03675,-0.25,-0.0015));
#579=CARTESIAN_POINT('',(0.03675,-0.25,-0.259608566574774));
#580=CARTESIAN_POINT('',(0.03675,-0.25,0.0015));
#581=CARTESIAN_POINT('',(0.,-0.25,0.0015));
#582=CARTESIAN_POINT('',(0.04175,-0.25,0.0015));
#583=CARTESIAN_POINT('',(0.04175,-0.25,4.55364912443912E-18));
#584=CARTESIAN_POINT('',(0.04175,-0.25,-0.0015));
#585=CARTESIAN_POINT('',(0.,-0.25,-0.0015));
#586=CARTESIAN_POINT('',(0.,0.,0.));
#587=CARTESIAN_POINT('',(0.03675,0.,-0.259608566574774));
#588=CARTESIAN_POINT('',(0.03675,0.,-0.0015));
#589=CARTESIAN_POINT('',(0.,0.,-0.0015));
#590=CARTESIAN_POINT('',(0.04175,0.,-0.0015));
#591=CARTESIAN_POINT('',(0.04175,0.,4.55364912443912E-18));
#592=CARTESIAN_POINT('',(0.04175,0.,0.0015));
#593=CARTESIAN_POINT('',(0.,0.,0.0015));
#594=CARTESIAN_POINT('',(0.03675,0.,0.0015));
#595=CARTESIAN_POINT('',(0.03675,0.,-0.259608566574774));
#596=CARTESIAN_POINT('',(0.04175,2.000000000002E-6,4.55364912443912E-18));
#597=CARTESIAN_POINT('',(0.04175,2.000000000002E-6,-0.0015));
#598=CARTESIAN_POINT('',(0.04175,2.000000000002E-6,0.0015));
#599=CARTESIAN_POINT('',(0.,2.000000000002E-6,-0.0015));
#600=CARTESIAN_POINT('',(0.03675,2.000000000002E-6,-0.0015));
#601=CARTESIAN_POINT('',(0.,2.000000000002E-6,0.0015));
#602=CARTESIAN_POINT('',(0.03675,2.000000000002E-6,0.0015));
#603=CARTESIAN_POINT('',(0.03675,-0.125,-0.259608566574774));
#604=CARTESIAN_POINT('',(0.03675,-0.125,-0.259608566574774));
#605=MECHANICAL_DESIGN_GEOMETRIC_PRESENTATION_REPRESENTATION('',(#368),
#607);
#606=MECHANICAL_DESIGN_GEOMETRIC_PRESENTATION_REPRESENTATION('',(#369),
#608);
#607=(
GEOMETRIC_REPRESENTATION_CONTEXT(3)
GLOBAL_UNCERTAINTY_ASSIGNED_CONTEXT((#609))
GLOBAL_UNIT_ASSIGNED_CONTEXT((#615,#613,#611))
REPRESENTATION_CONTEXT('Part 2','TOP_LEVEL_ASSEMBLY_PART')
);
#608=(
GEOMETRIC_REPRESENTATION_CONTEXT(3)
GLOBAL_UNCERTAINTY_ASSIGNED_CONTEXT((#610))
GLOBAL_UNIT_ASSIGNED_CONTEXT((#616,#614,#612))
REPRESENTATION_CONTEXT('Part 1','TOP_LEVEL_ASSEMBLY_PART')
);
#609=UNCERTAINTY_MEASURE_WITH_UNIT(LENGTH_MEASURE(1.E-8),#615,
'DISTANCE_ACCURACY_VALUE','Maximum Tolerance applied to model');
#610=UNCERTAINTY_MEASURE_WITH_UNIT(LENGTH_MEASURE(1.E-8),#616,
'DISTANCE_ACCURACY_VALUE','Maximum Tolerance applied to model');
#611=(
NAMED_UNIT(*)
SI_UNIT($,.STERADIAN.)
SOLID_ANGLE_UNIT()
);
#612=(
NAMED_UNIT(*)
SI_UNIT($,.STERADIAN.)
SOLID_ANGLE_UNIT()
);
#613=(
NAMED_UNIT(*)
PLANE_ANGLE_UNIT()
SI_UNIT($,.RADIAN.)
);
#614=(
NAMED_UNIT(*)
PLANE_ANGLE_UNIT()
SI_UNIT($,.RADIAN.)
);
#615=(
LENGTH_UNIT()
NAMED_UNIT(*)
SI_UNIT($,.METRE.)
);
#616=(
LENGTH_UNIT()
NAMED_UNIT(*)
SI_UNIT($,.METRE.)
);
#617=PRODUCT_DEFINITION_SHAPE('','',#619);
#618=PRODUCT_DEFINITION_SHAPE('','',#620);
#619=PRODUCT_DEFINITION('','',#623,#621);
#620=PRODUCT_DEFINITION('','',#624,#622);
#621=PRODUCT_DEFINITION_CONTEXT('',#635,'design');
#622=PRODUCT_DEFINITION_CONTEXT('',#636,'design');
#623=PRODUCT_DEFINITION_FORMATION_WITH_SPECIFIED_SOURCE('','',#627,
 .NOT_KNOWN.);
#624=PRODUCT_DEFINITION_FORMATION_WITH_SPECIFIED_SOURCE('','',#628,
 .NOT_KNOWN.);
#625=PRODUCT_RELATED_PRODUCT_CATEGORY('','',(#627));
#626=PRODUCT_RELATED_PRODUCT_CATEGORY('','',(#628));
#627=PRODUCT('Part 2','Part 2','Part 2',(#631));
#628=PRODUCT('Part 1','Part 1','Part 1',(#632));
#629=PRODUCT_CATEGORY('','');
#630=PRODUCT_CATEGORY('','');
#631=PRODUCT_CONTEXT('',#635,'mechanical');
#632=PRODUCT_CONTEXT('',#636,'mechanical');
#633=APPLICATION_PROTOCOL_DEFINITION('international standard',
'ap242_managed_model_based_3d_engineering',2020,#635);
#634=APPLICATION_PROTOCOL_DEFINITION('international standard',
'ap242_managed_model_based_3d_engineering',2020,#636);
#635=APPLICATION_CONTEXT('managed model based 3d engineering');
#636=APPLICATION_CONTEXT('managed model based 3d engineering');
ENDSEC;
END-ISO-10303-21;
